<?xml version="1.0" encoding="UTF-8"?>
<svg id="Layer_2" xmlns="http://www.w3.org/2000/svg" viewBox="0 0 350.66 54.58">
  <defs>
    <style>
      .cls-1 {
        fill: #edf1ee;
      }
    </style>
  </defs>
  <g id="Layer_1-2" data-name="Layer_1">
    <g>
      <g>
        <path class="cls-1" d="M7.34,28.05c-.52.42-.77.99-.77,1.68s.31,1.25.95,1.67c.63.41,2.09.9,4.37,1.46,2.28.56,4.05,1.4,5.31,2.53,1.26,1.12,1.89,2.76,1.89,4.92s-.81,3.9-2.42,5.24c-1.62,1.34-3.74,2.01-6.38,2.01-3.81,0-7.23-1.41-10.28-4.23l3.2-3.92c2.59,2.27,4.99,3.4,7.19,3.4.99,0,1.76-.21,2.32-.64.56-.42.84-1,.84-1.72s-.3-1.29-.89-1.72c-.6-.42-1.78-.85-3.54-1.29-2.8-.66-4.84-1.53-6.14-2.6-1.3-1.07-1.94-2.74-1.94-5.02s.82-4.04,2.46-5.28c1.64-1.24,3.68-1.86,6.14-1.86,1.6,0,3.21.28,4.81.83,1.6.55,3,1.33,4.19,2.34l-2.72,3.92c-2.09-1.58-4.24-2.37-6.46-2.37-.89,0-1.6.21-2.11.64Z"/>
        <path class="cls-1" d="M39.16,44.61c-2.09,1.97-4.53,2.96-7.34,2.96s-5.13-.87-6.96-2.6c-1.83-1.73-2.75-4.05-2.75-6.96s.93-5.23,2.8-6.95c1.87-1.72,4.07-2.58,6.62-2.58s4.7.77,6.48,2.3c1.78,1.54,2.66,3.64,2.66,6.33v2.75h-13.48c.16,1.01.69,1.83,1.58,2.48.89.64,1.9.96,3.03.96,1.81,0,3.3-.61,4.47-1.82l2.89,3.13ZM34.21,33.64c-.71-.6-1.58-.89-2.6-.89s-1.95.31-2.8.93c-.85.62-1.34,1.46-1.48,2.51h8.11c-.12-1.1-.53-1.95-1.24-2.54Z"/>
        <path class="cls-1" d="M60.1,47.29h-4.85v-2.24c-1.33,1.67-2.97,2.51-4.93,2.51s-3.6-.57-4.93-1.7c-1.33-1.13-1.99-2.65-1.99-4.54s.69-3.31,2.06-4.25c1.38-.94,3.25-1.41,5.64-1.41h3.85v-.1c0-1.97-1.04-2.96-3.13-2.96-.89,0-1.84.18-2.84.53-1,.36-1.84.8-2.53,1.32l-2.3-3.33c2.43-1.76,5.2-2.65,8.32-2.65,2.25,0,4.08.56,5.5,1.68,1.42,1.12,2.13,2.9,2.13,5.33v11.79ZM54.91,40.24v-.89h-3.23c-2.06,0-3.09.64-3.09,1.92,0,.67.25,1.18.74,1.53.49.36,1.2.53,2.11.53s1.72-.28,2.42-.84c.7-.56,1.05-1.31,1.05-2.25Z"/>
        <path class="cls-1" d="M74.54,33.33c-1.54,0-2.68.54-3.44,1.63-.76,1.09-1.13,2.53-1.13,4.31v8.01h-5.16v-18.5h5.16v2.44c.66-.76,1.5-1.4,2.49-1.93,1-.53,2.01-.8,3.04-.83l.03,4.85h-1Z"/>
        <path class="cls-1" d="M87.81,42.99c1.72,0,3.27-.86,4.64-2.58l3.06,3.44c-2.38,2.48-4.96,3.71-7.74,3.71s-5.12-.88-7.03-2.63c-1.91-1.75-2.87-4.04-2.87-6.88s.97-5.13,2.91-6.91c1.94-1.78,4.23-2.66,6.89-2.66,1.33,0,2.68.27,4.04.83,1.36.55,2.56,1.36,3.59,2.44l-2.68,3.51c-.6-.71-1.32-1.26-2.18-1.65-.86-.39-1.71-.58-2.56-.58-1.35,0-2.52.44-3.49,1.32-.97.88-1.46,2.11-1.46,3.68s.49,2.79,1.46,3.66c.97.87,2.11,1.31,3.42,1.31Z"/>
        <path class="cls-1" d="M104.11,37.32v9.97h-5.16v-25.51h5.16v9.08c1.56-1.58,3.31-2.37,5.24-2.37s3.57.69,4.9,2.06c1.33,1.38,1.99,3.21,1.99,5.5v11.24h-5.16v-10.11c0-2.84-1.04-4.26-3.13-4.26-1.03,0-1.93.37-2.7,1.12-.77.75-1.15,1.84-1.15,3.28Z"/>
        <path class="cls-1" d="M137.91,37.32v9.97h-5.19v-10.11c0-1.47-.22-2.54-.67-3.23-.45-.69-1.17-1.03-2.17-1.03s-1.88.37-2.65,1.12c-.77.75-1.15,1.84-1.15,3.28v9.97h-5.16v-18.5h5.16v2.1c1.42-1.6,3.05-2.41,4.88-2.41,1.17,0,2.23.34,3.18,1.03.95.69,1.67,1.52,2.15,2.51.71-1.12,1.67-1.99,2.87-2.61,1.2-.62,2.41-.93,3.63-.93,2.18,0,3.93.65,5.26,1.94s1.99,3.17,1.99,5.62v11.24h-5.19v-10.11c0-2.84-1.04-4.26-3.13-4.26-1.03,0-1.93.37-2.68,1.12-.76.75-1.13,1.84-1.13,3.28Z"/>
        <path class="cls-1" d="M157.92,54.58c-1.81,0-3.52-.73-5.12-2.2l2.34-3.82c.87.85,1.77,1.27,2.68,1.27.48,0,.89-.24,1.24-.7.34-.47.52-.97.52-1.5s-2.38-6.81-7.15-18.84h5.5l4.5,11.52,4.5-11.52h5.5l-8.6,21.8c-.5,1.26-1.29,2.24-2.36,2.94-1.07.7-2.25,1.05-3.56,1.05Z"/>
        <path class="cls-1" d="M188.58,41.53c0,1.82-.67,3.28-2.01,4.38-1.34,1.1-3.04,1.65-5.11,1.65-1.38,0-2.81-.25-4.3-.74-1.49-.49-2.83-1.22-4.02-2.18l2.27-3.23c1.93,1.49,3.98,2.24,6.15,2.24.67,0,1.19-.13,1.58-.4.39-.26.58-.61.58-1.05s-.27-.84-.81-1.2c-.54-.37-1.32-.71-2.34-1.03-1.02-.32-1.8-.6-2.34-.83-.54-.23-1.15-.56-1.84-1-1.4-.87-2.1-2.16-2.1-3.87s.69-3.1,2.06-4.18c1.38-1.08,3.15-1.62,5.33-1.62s4.35.73,6.53,2.2l-1.92,3.44c-1.6-1.1-3.2-1.65-4.8-1.65s-2.39.44-2.39,1.31c0,.48.25.86.76,1.13.5.27,1.34.6,2.51.96,1.17.37,2,.65,2.49.84.49.2,1.08.5,1.77.91,1.28.78,1.92,2.08,1.92,3.9Z"/>
        <path class="cls-1" d="M198.56,32.51v8.29c0,.71.18,1.27.55,1.67.37.4.8.6,1.31.6.96,0,1.78-.43,2.44-1.31l1.92,3.61c-1.6,1.47-3.29,2.2-5.07,2.2s-3.28-.58-4.5-1.75c-1.23-1.17-1.84-2.76-1.84-4.78v-8.53h-2.17v-3.71h2.17v-5.54h5.19v5.54h4.47v3.71h-4.47Z"/>
        <path class="cls-1" d="M223.24,47.29h-4.85v-2.24c-1.33,1.67-2.97,2.51-4.93,2.51s-3.6-.57-4.93-1.7c-1.33-1.13-1.99-2.65-1.99-4.54s.69-3.31,2.06-4.25c1.38-.94,3.25-1.41,5.64-1.41h3.85v-.1c0-1.97-1.04-2.96-3.13-2.96-.89,0-1.84.18-2.84.53-1,.36-1.84.8-2.53,1.32l-2.3-3.33c2.43-1.76,5.2-2.65,8.32-2.65,2.25,0,4.08.56,5.5,1.68,1.42,1.12,2.13,2.9,2.13,5.33v11.79ZM218.05,40.24v-.89h-3.23c-2.06,0-3.09.64-3.09,1.92,0,.67.25,1.18.74,1.53.49.36,1.2.53,2.11.53s1.72-.28,2.42-.84c.7-.56,1.05-1.31,1.05-2.25Z"/>
        <path class="cls-1" d="M230.91,54.58c-1.81,0-3.52-.73-5.12-2.2l2.34-3.82c.87.85,1.77,1.27,2.68,1.27.48,0,.89-.24,1.24-.7.34-.47.52-.97.52-1.5s-2.38-6.81-7.15-18.84h5.5l4.5,11.52,4.5-11.52h5.5l-8.6,21.8c-.5,1.26-1.29,2.24-2.36,2.94-1.07.7-2.25,1.05-3.56,1.05Z"/>
      </g>
      <g>
        <path class="cls-1" d="M288.39,42.99c1.72,0,3.27-.86,4.64-2.58l3.06,3.44c-2.38,2.48-4.96,3.71-7.74,3.71s-5.12-.88-7.03-2.63-2.87-4.04-2.87-6.88.97-5.13,2.91-6.91c1.94-1.78,4.23-2.66,6.89-2.66,1.33,0,2.68.27,4.04.83s2.56,1.36,3.59,2.44l-2.68,3.51c-.6-.71-1.32-1.26-2.18-1.65-.86-.39-1.71-.58-2.56-.58-1.35,0-2.52.44-3.49,1.32-.97.88-1.46,2.11-1.46,3.68s.49,2.79,1.46,3.66c.97.87,2.11,1.31,3.42,1.31Z"/>
        <path class="cls-1" d="M317.72,38.04c0,2.68-.93,4.94-2.78,6.77-1.86,1.83-4.19,2.75-7,2.75s-5.14-.92-7-2.75-2.79-4.09-2.79-6.77.93-4.95,2.79-6.79,4.19-2.77,7-2.77,5.14.92,7,2.77c1.86,1.85,2.78,4.11,2.78,6.79ZM303.35,38.04c0,1.51.43,2.75,1.29,3.7s1.96,1.43,3.3,1.43,2.44-.48,3.3-1.43,1.29-2.18,1.29-3.7-.43-2.75-1.29-3.71c-.86-.96-1.96-1.44-3.3-1.44s-2.44.48-3.3,1.44c-.86.96-1.29,2.2-1.29,3.71Z"/>
        <path class="cls-1" d="M338.52,37.32v9.97h-5.19v-10.11c0-1.47-.22-2.54-.67-3.23-.45-.69-1.17-1.03-2.17-1.03s-1.88.37-2.65,1.12c-.77.75-1.15,1.84-1.15,3.28v9.97h-5.16v-18.5h5.16v2.1c1.42-1.6,3.05-2.41,4.88-2.41,1.17,0,2.23.34,3.18,1.03.95.69,1.67,1.52,2.15,2.51.71-1.12,1.67-1.99,2.87-2.61,1.2-.62,2.41-.93,3.63-.93,2.18,0,3.93.65,5.26,1.94s1.99,3.17,1.99,5.62v11.24h-5.19v-10.11c0-2.84-1.04-4.26-3.13-4.26-1.03,0-1.92.37-2.68,1.12-.76.75-1.13,1.84-1.13,3.28Z"/>
      </g>
      <g>
        <path class="cls-1" d="M270.76,9.2c-.39-5.46-5.13-9.57-10.58-9.18h0c-5.46.39-9.57,5.13-9.18,10.58-.03,9.78,5.28,17.13,10.63,25,5.66-9.49,10.22-18.38,9.13-26.4ZM260.95,17.8c-3.47,0-6.28-2.81-6.28-6.28s2.81-6.28,6.28-6.28,6.28,2.81,6.28,6.28-2.81,6.28-6.28,6.28Z"/>
        <circle class="cls-1" cx="261.72" cy="44.15" r="3.14"/>
      </g>
    </g>
  </g>
</svg>